<?xml version="1.0" standalone="no"?><!DOCTYPE svg PUBLIC "-//W3C//DTD SVG 1.1//EN" "http://www.w3.org/Graphics/SVG/1.1/DTD/svg11.dtd"><svg t="1592332254284" class="icon" viewBox="0 0 1024 1024" version="1.1" xmlns="http://www.w3.org/2000/svg" p-id="1177" xmlns:xlink="http://www.w3.org/1999/xlink" width="200" height="200"><defs><style type="text/css"></style></defs><path d="M885 905.5L731.5 707.9c7.9-6.7 15.7-13.7 23-21.2 33.6-33.6 60-72.7 78.5-116.4 19.1-45.1 28.8-93.1 28.8-142.5s-9.7-97.4-28.8-142.5c-18.5-43.6-44.9-82.8-78.5-116.4-33.6-33.6-72.7-60-116.4-78.5C593 71.3 545 61.6 495.6 61.6s-97.4 9.7-142.5 28.8c-43.6 18.5-82.8 44.9-116.4 78.5s-60 72.7-78.5 116.4c-19.1 45.1-28.8 93.1-28.8 142.5s9.7 97.4 28.8 142.5c18.5 43.6 44.9 82.8 78.5 116.4s72.7 60 116.4 78.5c45.1 19.1 93.1 28.8 142.5 28.8s97.4-9.7 142.5-28.8c13-5.5 25.6-11.7 37.8-18.6L831.5 947c11.4 14.7 32.3 17.7 46.4 6.6l1.8-1.3c14.4-11.2 16.6-32.1 5.3-46.8zM495.7 732C328 732 191.6 595.5 191.6 427.7S328 123.6 495.7 123.6 799.8 260 799.8 427.7c0 167.9-136.4 304.3-304.1 304.3z" p-id="1178" fill="#ffffff"></path></svg>